<svg xmlns="http://www.w3.org/2000/svg" width="834.168" height="348.179" viewBox="0 0 834.168 348.179"><defs><style>.a{fill:#14060b;}</style></defs><g transform="translate(-100.4 -395.288)"><path class="a" d="M28.385,68.092c0,2.845-2.371,2.371-4.457,2.371v.664h16.5v-.664c-2.086,0-4.457.474-4.457-2.371V7.777c0-1.233,1.043-1.517,2.371-1.612h12.8c4.173,0,8.346.474,10.242,11.38H62.81l-2.181-12.8H4.676l-2.181,12.8H3.917C5.814,6.638,9.987,6.164,14.16,6.164H26.014c1.328.095,2.371.379,2.371,1.612ZM81.588,0,69.543,2.466V2.94C72.1,2.94,74,3.13,74,6.449V68.092c0,2.845-2.371,2.371-4.457,2.371v.664h16.5v-.664c-2.086,0-4.457.474-4.457-2.371V45.142c.095-12.234,6.069-21.053,14.225-21.053,8.44,0,11.949,8.535,11.949,17.545v22.76c0,5.5,3.6,7.777,8.44,7.777,4.173,0,5.69-1.233,6.828-3.6.19-.379.285-.948-.19-1.138s-.854.19-1.138.664c-.569.948-.948,2.655-3.6,2.655-2.181,0-2.75-1.992-2.75-6.354V41.633c0-11.57-6.354-18.967-19.536-18.967-5.6,0-10.147,3.224-12.9,8.915-.854,1.138-1.328.474-1.328-2.086Zm83.171,64.962c.664-.854-.569-1.9-1.328-.569-2.371,3.224-4.931,4.268-9.389,4.268-8.63,0-17.545-7.871-18.3-22,0-1.328.474-1.612,1.992-1.612h30.347c1.043-10.147-4.742-22.381-19.157-22.381-12.992,0-20.959,12.9-20.959,24.752s7.966,24.752,20.959,24.752C154.8,72.17,160.87,70.558,164.758,64.962ZM148.921,24.088c7.113,0,11.1,5.88,11.665,15.079.095,3.414-.854,4.457-2.181,4.457H138.109c-1.328,0-2.371-.19-2.276-2.845C136.782,31.106,141.334,24.088,148.921,24.088Zm55.1,44c0,2.845-2.371,2.371-4.457,2.371v.664h16.5v-.664c-2.086,0-4.457.474-4.457-2.371v-23.9C211.7,28.166,222.323,29.3,228.677,29.3c3.983,0,5.69-1.138,5.69-3.509,0-2.276-1.707-3.13-4.742-3.13A19.466,19.466,0,0,0,212.745,33c-.759,1.138-1.138.664-1.138-.948V22.666l-12.044,2.466v.474c2.561,0,4.457.19,4.457,3.509ZM245.463,8.63a3.888,3.888,0,0,0,7.777,0,3.888,3.888,0,1,0-7.777,0Zm0,55.763c0,5.5,3.6,7.777,8.44,7.777,4.173,0,5.69-1.233,6.828-3.6.19-.379.285-.948-.19-1.138s-.853.19-1.138.664c-.569.948-.948,2.655-3.6,2.655-2.181,0-2.75-1.992-2.75-6.354V23.709l-12.044,2.466v.474c2.561,0,4.457.19,4.457,3.509Zm22.381-20.2a23.216,23.216,0,0,0,5.69,15.553c-7.018,3.983-7.871,13.846-.285,16.5-3.6,1.328-7.587,3.888-7.587,8.915,0,5.5,6.069,9.673,15.553,9.673,15.363,0,27.123-9.578,27.123-19.252,0-18.588-21.338-6.259-33.572-6.259-5.216,0-3.6-5.975-.19-8.44a17.467,17.467,0,0,0,12.139,4.742c11.191,0,18.872-10.053,18.872-21.433,0-7.207-3.035-13.846-8.156-17.734.759-2.94,4.931-4.078,8.251-3.7,2.75.285,3.509-2.94,2.276-5.026s-3.983-2.276-6.354-1.328c-2.94,1.233-5.216,5.311-5.6,9.009a16.942,16.942,0,0,0-9.294-2.655C275.431,22.76,267.844,32.813,267.844,44.193Zm7.3,0c-1.328-9.484,1.233-20.2,8.63-20.2,7.492,0,13.182,10.716,14.51,20.2,1.233,9.389-1.233,20.2-8.725,20.2S276.379,53.582,275.147,44.193Zm1.138,32.623c.474,0,.854.095,1.328.095,7.966,0,29.02-9.389,29.02.569,0,5.69-10.147,15.838-23.424,15.838-6.164,0-9.958-3.6-9.958-10.053A7.632,7.632,0,0,1,276.285,76.817ZM327.306,0,315.262,2.466V2.94c2.561,0,4.457.19,4.457,3.509V68.092c0,2.845-2.371,2.371-4.457,2.371v.664h16.5v-.664c-2.086,0-4.457.474-4.457-2.371V45.142c.095-12.234,6.069-21.053,14.225-21.053,8.44,0,11.949,8.535,11.949,17.545v22.76c0,5.5,3.6,7.777,8.44,7.777,4.173,0,5.69-1.233,6.828-3.6.19-.379.284-.948-.19-1.138s-.854.19-1.138.664c-.569.948-.948,2.655-3.6,2.655-2.181,0-2.75-1.992-2.75-6.354V41.633c0-11.57-6.354-18.967-19.536-18.967-5.6,0-10.147,3.224-12.9,8.915-.854,1.138-1.328.474-1.328-2.086Zm51.116,64.393c0,5.5,3.6,7.777,8.44,7.777,4.173,0,5.69-1.233,6.828-3.6.19-.379.284-.948-.19-1.138s-.854.19-1.138.664c-.569.948-.948,2.655-3.6,2.655-2.181,0-2.75-1.992-2.75-6.354V24.562c0-1.423.474-1.9,2.086-1.9h5.6V21.243h-5.6c-1.612,0-2.086-.474-2.086-1.9V10.337h-1.423c0,7.018-3.7,10.906-11.854,10.906v1.423h3.6c1.612,0,2.086.474,2.086,1.9ZM466.9,0,454.86,2.466V2.94c2.561,0,4.457.19,4.457,3.509V24.088c0,1.233,0,3.6-1.138,2.845a21.008,21.008,0,0,0-12.518-4.268c-11.949,0-22.381,9.389-22.381,24.373s9.2,25.131,22.381,25.131a15.651,15.651,0,0,0,11.665-4.647c1.517-1.328,1.9-1.328,2.371-.285,1.043,3.414,4.173,4.931,8.061,4.931,4.173,0,5.69-1.233,6.828-3.6.19-.379.285-.948-.19-1.138s-.854.19-1.138.664c-.569.948-.948,2.655-3.6,2.655-2.181,0-2.75-1.992-2.75-6.354ZM447.557,68.851c-12.329,0-16.691-13.846-16.691-25.606,0-10.053,3.7-19.157,14.794-19.157,8.82,0,13.656,7.492,13.656,19.157V60.41C459.317,62.781,454.86,68.851,447.557,68.851Zm69.7-3.888c.664-.854-.569-1.9-1.328-.569-2.371,3.224-4.931,4.268-9.389,4.268-8.63,0-17.545-7.871-18.3-22,0-1.328.474-1.612,1.992-1.612h30.347c1.043-10.147-4.742-22.381-19.157-22.381-12.992,0-20.959,12.9-20.959,24.752s7.966,24.752,20.959,24.752C507.3,72.17,513.373,70.558,517.261,64.962ZM501.424,24.088c7.113,0,11.1,5.88,11.665,15.079.095,3.414-.854,4.457-2.181,4.457H490.613c-1.328,0-2.371-.19-2.276-2.845C489.285,31.106,493.837,24.088,501.424,24.088Zm54.151,35.468c0,4.742-3.414,11.191-10.906,11.191-6.638,0-9.484-5.88-10.906-9.768-1.043-2.94-3.793-3.6-5.785-2.371s-1.707,4.742-.664,6.449c3.509,5.785,11.854,7.113,17.355,7.113,8.535,0,18.493-4.268,18.493-14.51,0-14.51-26.269-17.45-26.269-26.175,0-3.7,3.414-7.4,9.009-7.4,4.742,0,8.061,2.845,9.768,7.966.854,2.561,4.457,2.276,6.069.759s1.138-4.457-.474-5.88c-4.078-3.414-9.2-4.268-15.363-4.268-7.587,0-16.6,2.371-16.6,10.716C529.305,46,555.575,48.461,555.575,59.557Zm43.34,0c0,4.742-3.414,11.191-10.906,11.191-6.638,0-9.484-5.88-10.906-9.768-1.043-2.94-3.793-3.6-5.785-2.371s-1.707,4.742-.664,6.449c3.509,5.785,11.854,7.113,17.355,7.113,8.535,0,18.493-4.268,18.493-14.51,0-14.51-26.269-17.45-26.269-26.175,0-3.7,3.414-7.4,9.009-7.4,4.742,0,8.061,2.845,9.768,7.966.854,2.561,4.457,2.276,6.069.759s1.138-4.457-.474-5.88c-4.078-3.414-9.2-4.268-15.363-4.268-7.587,0-16.6,2.371-16.6,10.716C572.645,46,598.915,48.461,598.915,59.557Zm52.918,5.406c.664-.854-.569-1.9-1.328-.569-2.371,3.224-4.931,4.268-9.389,4.268-8.63,0-17.545-7.871-18.3-22,0-1.328.474-1.612,1.992-1.612h30.347C656.2,34.9,650.41,22.666,636,22.666c-12.992,0-20.959,12.9-20.959,24.752S623,72.17,636,72.17C641.875,72.17,647.944,70.558,651.833,64.962ZM636,24.088c7.113,0,11.1,5.88,11.665,15.079.095,3.414-.853,4.457-2.181,4.457H625.184c-1.328,0-2.371-.19-2.276-2.845C623.856,31.106,628.408,24.088,636,24.088Zm30.442,44c0,2.845-2.371,2.371-4.457,2.371v.664h16.5v-.664c-2.086,0-4.457.474-4.457-2.371v-23.9c.095-16.027,10.716-14.889,17.07-14.889,3.983,0,5.69-1.138,5.69-3.509,0-2.276-1.707-3.13-4.742-3.13A19.466,19.466,0,0,0,675.162,33c-.759,1.138-1.138.664-1.138-.948V22.666L661.98,25.131v.474c2.561,0,4.457.19,4.457,3.509Zm42.676-3.7c0,5.5,3.6,7.777,8.44,7.777,4.173,0,5.69-1.233,6.828-3.6.19-.379.285-.948-.19-1.138s-.853.19-1.138.664c-.569.948-.948,2.655-3.6,2.655-2.181,0-2.75-1.992-2.75-6.354V24.562c0-1.423.474-1.9,2.086-1.9h5.6V21.243h-5.6c-1.612,0-2.086-.474-2.086-1.9V10.337h-1.422c0,7.018-3.7,10.906-11.854,10.906v1.423h3.6c1.612,0,2.086.474,2.086,1.9ZM6.857,191.378c0,2.845-2.371,2.371-4.457,2.371v.664H18.9v-.664c-2.086,0-4.457.474-4.457-2.371V147.564c0-1.233,1.043-1.517,2.371-1.612h6.544v-1.423H17.289c-2.181,0-2.845-.569-2.845-3.888,0-8.44.474-15.932,5.311-15.932,6.354,0,6.354,7.113,11.949,7.113a3.465,3.465,0,0,0,3.509-3.319c0-2.655-3.6-5.216-11.665-5.216-12.329,0-16.217,3.509-16.691,18.208-.285,2.561-1.233,3.035-3.224,3.035H2.4v1.423H4.486c1.328.095,2.371.379,2.371,1.612ZM30.471,170.7c0,11.854,7.966,24.752,20.959,24.752s20.959-12.9,20.959-24.752-7.966-24.752-20.959-24.752S30.471,158.849,30.471,170.7Zm7.682,1.9c-1.517-10.811,1.517-23.8,10.053-25.037,8.535-1.138,14.984,10.432,16.5,21.243s-1.517,23.8-10.053,25.037C46.119,194.982,39.67,183.412,38.153,172.6Zm46.28,18.777c0,2.845-2.371,2.371-4.457,2.371v.664h16.5v-.664c-2.086,0-4.457.474-4.457-2.371v-23.9c.095-16.027,10.716-14.889,17.07-14.889,3.983,0,5.69-1.138,5.69-3.509,0-2.276-1.707-3.13-4.742-3.13a19.466,19.466,0,0,0-16.881,10.337c-.759,1.138-1.138.664-1.138-.948v-9.389l-12.044,2.466v.474c2.561,0,4.457.19,4.457,3.509Zm78.713-44c5.6,0,9.009,3.793,10.716,9.009.569,2.086.664,3.6-1.233,5.311-8.82,7.682-28.451,4.552-28.451,20.959,0,8.251,7.018,12.8,14.794,12.8,7.018,0,12.234-4.837,15.079-13.182.569-1.612,1.043-.854,1.043.379v5.026c0,5.5,3.6,7.776,8.44,7.776,4.173,0,5.69-1.233,6.828-3.6.19-.379.285-.948-.19-1.138s-.854.19-1.138.664c-.569.948-.948,2.655-3.6,2.655-2.181,0-2.75-1.992-2.75-6.354V164.919c0-11.57-6.354-18.967-19.536-18.967-6.923,0-10.906,1.423-14.889,5.975-1.707,1.9-1.707,4.931.474,6.354a3.775,3.775,0,0,0,5.785-1.992C156.508,151.168,156.508,147.374,163.146,147.374Zm-3.224,46.659c-6.923,0-8.156-7.777-8.156-12.329,0-14.6,13.751-11.76,21.528-18.4,1.138-.854,1.8-.474,1.8,1.612v.759C175.1,181.42,169.974,194.033,159.922,194.033Zm40.779-2.655c0,2.845-2.371,2.371-4.457,2.371v.664h16.5v-.664c-2.086,0-4.457.474-4.457-2.371v-22.95c.095-12.234,6.069-21.053,14.225-21.053,8.44,0,11.949,8.535,11.949,17.545v22.761c0,5.5,3.6,7.776,8.44,7.776,4.173,0,5.69-1.233,6.828-3.6.19-.379.285-.948-.19-1.138s-.854.19-1.138.664c-.569.948-.948,2.655-3.6,2.655-2.181,0-2.75-1.992-2.75-6.354V164.919c0-11.57-6.354-18.967-19.536-18.967-5.6,0-10.147,3.224-12.9,8.915-.854,1.138-1.328.474-1.328-2.086v-6.828l-12.044,2.466v.474c2.561,0,4.457.19,4.457,3.509Zm71.98,5.5c-5.6,14.7-15.174,13.656-19.821,13.656-9.768,0-9.768,7.587-.095,7.587,5.69,0,14.7-3.888,21.338-21.243l18.3-47.7c1.138-1.9,3.035-1.517,4.931-1.517l.285-.664H287.38l-.285.664c1.992,0,4.362-.379,3.7,1.992l-14.32,37.365-14.415-37.555c-.569-2.181,1.8-1.8,3.7-1.8l-.19-.664H249.162l.19.664c1.9,0,3.793-.379,5.026,1.707ZM327.116,170.7c0,11.854,7.966,24.752,20.959,24.752s20.959-12.9,20.959-24.752-7.966-24.752-20.959-24.752S327.116,158.849,327.116,170.7Zm7.682,1.9c-1.517-10.811,1.517-23.8,10.053-25.037,8.535-1.138,14.984,10.432,16.5,21.243s-1.517,23.8-10.053,25.037C342.764,194.982,336.315,183.412,334.8,172.6Zm63.729-25.226c4.742,0,6.638,3.793,8.63,8.915a3.775,3.775,0,0,0,5.785,1.992c2.181-1.423,1.9-4.173.474-6.354-2.94-4.552-7.966-5.975-14.889-5.975-12.992,0-20.959,12.9-20.959,24.752s7.966,24.752,20.959,24.752c5.88,0,11.949-1.612,15.837-7.207.664-.854-.569-1.9-1.328-.569-2.371,3.224-4.931,4.268-9.389,4.268-9.009,0-18.4-8.63-18.4-24.088C385.25,156.289,389.992,147.374,398.527,147.374Zm43.624,0c4.742,0,6.638,3.793,8.63,8.915a3.775,3.775,0,0,0,5.785,1.992c2.181-1.423,1.9-4.173.474-6.354-2.94-4.552-7.966-5.975-14.889-5.975-12.992,0-20.959,12.9-20.959,24.752s7.966,24.752,20.959,24.752c5.88,0,11.949-1.612,15.837-7.207.664-.854-.569-1.9-1.328-.569-2.371,3.224-4.931,4.268-9.389,4.268-9.009,0-18.4-8.63-18.4-24.088C428.875,156.289,433.617,147.374,442.152,147.374Zm43.529,0c5.6,0,9.009,3.793,10.716,9.009.569,2.086.664,3.6-1.233,5.311-8.82,7.682-28.451,4.552-28.451,20.959,0,8.251,7.018,12.8,14.794,12.8,7.018,0,12.234-4.837,15.079-13.182.569-1.612,1.043-.854,1.043.379v5.026c0,5.5,3.6,7.776,8.44,7.776,4.173,0,5.69-1.233,6.828-3.6.19-.379.284-.948-.19-1.138s-.854.19-1.138.664c-.569.948-.948,2.655-3.6,2.655-2.181,0-2.75-1.992-2.75-6.354V164.919c0-11.57-6.354-18.967-19.536-18.967-6.923,0-10.906,1.423-14.889,5.975-1.707,1.9-1.707,4.931.474,6.354a3.775,3.775,0,0,0,5.785-1.992C479.043,151.168,479.043,147.374,485.681,147.374Zm-3.224,46.659c-6.923,0-8.156-7.777-8.156-12.329,0-14.6,13.751-11.76,21.528-18.4,1.138-.854,1.8-.474,1.8,1.612v.759C497.63,181.42,492.509,194.033,482.457,194.033Zm65.436-11.191c0,4.742-3.414,11.191-10.906,11.191-6.638,0-9.484-5.88-10.906-9.768-1.043-2.94-3.793-3.6-5.785-2.371s-1.707,4.742-.664,6.449c3.509,5.785,11.854,7.113,17.355,7.113,8.535,0,18.493-4.268,18.493-14.51,0-14.51-26.269-17.45-26.269-26.175,0-3.7,3.414-7.4,9.009-7.4,4.742,0,8.061,2.845,9.768,7.966.854,2.561,4.457,2.276,6.069.759s1.138-4.457-.474-5.88c-4.078-3.414-9.2-4.268-15.363-4.268-7.587,0-16.6,2.371-16.6,10.716C521.624,169.281,547.893,171.747,547.893,182.843Zm18.683-50.927a3.888,3.888,0,1,0,7.776,0,3.888,3.888,0,1,0-7.776,0Zm0,55.763c0,5.5,3.6,7.776,8.44,7.776,4.173,0,5.69-1.233,6.828-3.6.19-.379.285-.948-.19-1.138s-.854.19-1.138.664c-.569.948-.948,2.655-3.6,2.655-2.181,0-2.75-1.992-2.75-6.354V146.995l-12.044,2.466v.474c2.561,0,4.457.19,4.457,3.509Zm20.2-16.976c0,11.854,7.966,24.752,20.959,24.752s20.959-12.9,20.959-24.752-7.966-24.752-20.959-24.752S586.776,158.849,586.776,170.7Zm7.682,1.9c-1.517-10.811,1.517-23.8,10.053-25.037,8.535-1.138,14.984,10.432,16.5,21.243s-1.517,23.8-10.053,25.037C602.424,194.982,595.975,183.412,594.457,172.6Zm46.28,18.777c0,2.845-2.371,2.371-4.457,2.371v.664h16.5v-.664c-2.086,0-4.457.474-4.457-2.371v-22.95c.095-12.234,6.069-21.053,14.225-21.053,8.44,0,11.949,8.535,11.949,17.545v22.761c0,5.5,3.6,7.776,8.44,7.776,4.173,0,5.69-1.233,6.828-3.6.19-.379.285-.948-.19-1.138s-.853.19-1.138.664c-.569.948-.948,2.655-3.6,2.655-2.181,0-2.75-1.992-2.75-6.354V164.919c0-11.57-6.354-18.967-19.536-18.967-5.6,0-10.147,3.224-12.9,8.915-.854,1.138-1.328.474-1.328-2.086v-6.828l-12.044,2.466v.474c2.56,0,4.457.19,4.457,3.509Z" transform="translate(98 525.345)"/><g transform="translate(808.729 395.288)"><path class="a" d="M293.3,236.858c-38.215,3.644-41.124,7.694-43.369,68.644a.206.206,0,0,1-.413,0c-2.246-60.951-5.154-65-43.369-68.644a.207.207,0,0,1,0-.411c38.215-3.644,41.123-7.695,43.369-68.644a.206.206,0,0,1,.413,0c2.245,60.95,5.154,65,43.369,68.644a.207.207,0,0,1,0,.411" transform="translate(-192.547 -144.229)"/><path class="a" d="M308.483,187.29c-21.743,2.073-23.4,4.378-24.676,39.057a.117.117,0,0,1-.235,0c-1.278-34.679-2.933-36.983-24.676-39.057a.118.118,0,0,1,0-.235c21.743-2.073,23.4-4.378,24.676-39.057a.117.117,0,0,1,.235,0c1.278,34.679,2.933,36.983,24.676,39.057a.118.118,0,0,1,0,.235" transform="translate(-182.751 -147.886)"/><path class="a" d="M224.963,185.854c-13.265,1.265-14.275,2.671-15.054,23.827a.072.072,0,0,1-.143,0c-.78-21.157-1.789-22.563-15.054-23.827a.072.072,0,0,1,0-.143c13.265-1.264,14.274-2.67,15.054-23.826a.072.072,0,0,1,.143,0c.779,21.157,1.789,22.563,15.054,23.826a.072.072,0,0,1,0,.143" transform="translate(-194.646 -145.303)"/></g></g></svg>