<svg xmlns="http://www.w3.org/2000/svg" width="238.633" height="118.634" viewBox="0 0 238.633 118.634"><defs><style>.a{fill:#14060b;}</style></defs><path d="M174.012,41.386c-.708,1.469-1.7,2.38-4.441,2.38-3.46,0-5.442-1.839-5.442-5.048V25.182c0-4.839-1.757-10.011-6.683-10.011-4.6,0-7.983,5.09-8.037,12.1V40.917a1.054,1.054,0,0,0,.223.761c.279.271.911.251,1.523.234.161,0,.321-.008.482-.008a.422.422,0,0,1,.423.423v.395a.422.422,0,0,1-.423.423h-9.813a.422.422,0,0,1-.423-.423v-.395a.422.422,0,0,1,.423-.423c.158,0,.321.006.482.008.612.017,1.244.037,1.523-.234a1.054,1.054,0,0,0,.223-.761V4.259c0-1.514-.646-1.664-2.228-1.664a.422.422,0,0,1-.423-.423V1.89a.423.423,0,0,1,.338-.415L148.9.009a.423.423,0,0,1,.508.415v17.54a6.182,6.182,0,0,0,.054.916c1.734-3.485,4.563-5.4,7.983-5.4,7.653,0,12.041,4.267,12.041,11.7V38.718c0,2.82.426,3.356,1.213,3.356a1.528,1.528,0,0,0,1.61-1.057c.059-.116.113-.22.169-.316.46-.764.99-.654,1.2-.57a.729.729,0,0,1,.417.42,1.1,1.1,0,0,1-.082.835" transform="translate(-101.527 0)"/><path d="M36.617,18.311a.426.426,0,0,1-.325.149h-.846a.424.424,0,0,1-.418-.35c-1.117-6.418-3.536-6.418-5.673-6.418h-7.6c-1,.073-1,.319-1,.536V48.1a1.052,1.052,0,0,0,.223.761c.279.271.911.251,1.522.234.161,0,.322-.008.482-.008a.423.423,0,0,1,.423.423V49.9a.423.423,0,0,1-.423.423H13.169a.422.422,0,0,1-.423-.423v-.395a.422.422,0,0,1,.423-.423c.158,0,.321.006.482.008.612.017,1.244.037,1.523-.234A1.054,1.054,0,0,0,15.4,48.1V12.229c0-.217,0-.462-1-.536H7.36c-2.137,0-4.557,0-5.674,6.418a.423.423,0,0,1-.417.35H.423A.425.425,0,0,1,.1,18.311a.435.435,0,0,1-.093-.344l1.3-7.614A.424.424,0,0,1,1.72,10H35a.424.424,0,0,1,.417.352l1.3,7.614a.434.434,0,0,1-.093.344" transform="translate(0 -7.181)"/><path d="M286.206,51.416a11.359,11.359,0,0,0-8.719-3.615c-7.961,0-12.887,7.859-12.887,15.143s4.926,15.143,12.887,15.143c4.419,0,7.707-1.5,9.751-4.45a.874.874,0,0,0,.124-.919.81.81,0,0,0-.7-.477,1.024,1.024,0,0,0-.9.567c-1.28,1.731-2.651,2.346-5.228,2.346-4.862,0-10.016-4.357-10.462-12.661,0-.474,0-.536.761-.536h18.047a.422.422,0,0,0,.42-.381,13.3,13.3,0,0,0-3.093-10.16m-3.079,8.849H271.058c-.352,0-.6-.025-.725-.158-.107-.113-.231-.389-.206-1.083.587-5.97,3.339-9.531,7.36-9.531,3.8,0,6.178,3.124,6.514,8.556.037,1.306-.2,1.83-.4,2.039a.615.615,0,0,1-.471.178" transform="translate(-189.985 -34.322)"/><path d="M445.417,41.662s0,.006-.006.011c-2.713,5.09-7.659,7.78-14.3,7.78-10.814,0-17.509-10.758-17.509-20.726C413.6,18.429,420.2,8,432.8,8c5.282,0,8.448,1.111,11.3,3.959a3.853,3.853,0,0,1,1.207,2.964,2.314,2.314,0,0,1-1.046,1.748,2.784,2.784,0,0,1-2.349.426,2.653,2.653,0,0,1-1.658-1.511c-1.889-4.351-3.838-5.894-7.45-5.894-9.433,0-13.73,9.6-13.73,18.527,0,11.068,8.071,17.681,15.873,17.681,4.117,0,7.225-1.757,8.987-5.076a1.4,1.4,0,0,1,.75-.75.724.724,0,0,1,.575.076c.688.46.3,1.224.161,1.511" transform="translate(-296.969 -5.745)"/><path d="M568.74,74.872a.729.729,0,0,0-.417-.42c-.209-.085-.739-.195-1.2.57-.056.1-.11.2-.169.313a1.527,1.527,0,0,1-1.61,1.06c-.787,0-1.213-.536-1.213-3.356V59.5c0-7.436-4.388-11.7-12.041-11.7-4.385,0-6.785.967-9.17,3.694a3.223,3.223,0,0,0-.812,2.529,2.628,2.628,0,0,0,1.179,1.887,2.73,2.73,0,0,0,2.346.347,2.773,2.773,0,0,0,1.72-1.734c.195-.5.355-.976.51-1.433.79-2.321,1.224-3.6,4.227-3.6,3.564,0,5.214,2.755,5.964,5.045.333,1.215.321,1.9-.6,2.73-1.8,1.565-4.478,2.377-7.072,3.161-4.912,1.486-9.991,3.023-9.991,9.622,0,5.521,4.78,8.037,9.221,8.037,4.1,0,7.337-2.679,9.165-7.557v2.51c0,3.209,1.982,5.048,5.442,5.048,2.747,0,3.736-.911,4.439-2.377a1.091,1.091,0,0,0,.085-.838m-18.566,1.523c-4,0-4.427-4.831-4.427-6.909,0-5.411,3.24-6.531,6.993-7.828a16.856,16.856,0,0,0,5.64-2.775,1,1,0,0,1,.285-.164,1.793,1.793,0,0,1,.11.784v.451c0,9.988-3.375,16.44-8.6,16.44" transform="translate(-388.004 -34.322)"/><path d="M679.832,40.774a1.338,1.338,0,0,1-.122.584.009.009,0,0,1,0,.006c-.6,1.441-1.588,2.4-4.45,2.4-4.74,0-7.354-1.514-8.485-9.785-.587-4.41-1.968-7.157-4-7.944a1.408,1.408,0,0,0-1.283.423l-2.73,2.617a2.677,2.677,0,0,0-.567,1.689V40.917a1.054,1.054,0,0,0,.223.761c.279.271.911.251,1.523.234.161,0,.321-.008.482-.008a.423.423,0,0,1,.423.423v.395a.423.423,0,0,1-.423.423h-9.814a.422.422,0,0,1-.423-.423v-.395a.422.422,0,0,1,.423-.423c.158,0,.322.006.482.008.612.017,1.244.037,1.523-.234a1.054,1.054,0,0,0,.223-.761V4.259c0-1.514-.646-1.664-2.228-1.664a.422.422,0,0,1-.423-.423V1.89a.423.423,0,0,1,.338-.415L657.69.009a.423.423,0,0,1,.508.415V26.818a3.567,3.567,0,0,0,.043.677,2.171,2.171,0,0,0,.214-.149L670.326,16.06a.25.25,0,0,1,.06-.076,3.3,3.3,0,0,0,.5-.575,6.1,6.1,0,0,0-.947-.02c-.166,0-.333.008-.49.008a.427.427,0,0,1-.392-.262.422.422,0,0,1,.093-.46l.394-.395a.423.423,0,0,1,.3-.124h6.147a.427.427,0,0,1,.392.262.421.421,0,0,1-.093.46l-.395.395a.422.422,0,0,1-.3.124c-.152,0-.3,0-.451-.008a3.833,3.833,0,0,0-3.107,1.035L664.066,24a.115.115,0,0,0-.023.1c.031.085.186.2.522.268,4.653.744,7.058,3.767,7.56,9.514.623,6.793,2.155,8.186,4.261,8.186a2.019,2.019,0,0,0,1.714-1.255c.025-.048.048-.09.065-.118.46-.764.99-.654,1.2-.57a.72.72,0,0,1,.468.643" transform="translate(-466.842 0)"/><path d="M780,51.416a11.359,11.359,0,0,0-8.719-3.615c-7.961,0-12.887,7.859-12.887,15.143s4.926,15.143,12.887,15.143c4.419,0,7.707-1.5,9.751-4.45a.874.874,0,0,0,.124-.919.81.81,0,0,0-.7-.477,1.006,1.006,0,0,0-.894.567c-1.283,1.731-2.654,2.346-5.231,2.346-4.862,0-10.016-4.357-10.462-12.661,0-.474,0-.536.761-.536h18.047a.422.422,0,0,0,.42-.381A13.3,13.3,0,0,0,780,51.416m-3.079,8.849H764.847c-.352,0-.6-.025-.725-.158-.107-.113-.231-.389-.206-1.083.587-5.97,3.339-9.531,7.36-9.531,3.8,0,6.178,3.124,6.514,8.556.037,1.306-.2,1.83-.4,2.039a.614.614,0,0,1-.471.178" transform="translate(-544.53 -34.322)"/><path d="M305.067,297.039c-.708,1.469-1.7,2.38-4.441,2.38-3.46,0-5.442-1.839-5.442-5.048V270.684c0-.558-.034-.7-.818-.7h-2.143a.422.422,0,0,1-.423-.423v-.846a.422.422,0,0,1,.423-.423c4.458,0,6.627-1.982,6.627-6.063a.422.422,0,0,1,.423-.423h.846a.422.422,0,0,1,.423.423v5.358c0,.558.031.705.818.705h3.328a.422.422,0,0,1,.423.423v.846a.422.422,0,0,1-.423.423h-3.328c-.787,0-.818.147-.818.7v23.687c0,2.82.426,3.356,1.213,3.356a1.527,1.527,0,0,0,1.61-1.06c.059-.113.113-.217.169-.313.46-.764.99-.654,1.2-.57a.729.729,0,0,1,.417.42,1.1,1.1,0,0,1-.082.835" transform="translate(-209.514 -194.264)"/><path d="M122.35,314.872a.737.737,0,0,0-.417-.42c-.209-.085-.739-.195-1.2.57-.056.1-.11.2-.169.316a1.528,1.528,0,0,1-1.61,1.057c-.787,0-1.213-.536-1.213-3.356V299.5c0-7.436-4.388-11.7-12.041-11.7-4.385,0-6.785.967-9.17,3.694a3.223,3.223,0,0,0-.812,2.529,2.628,2.628,0,0,0,1.179,1.887,2.729,2.729,0,0,0,2.346.347,2.773,2.773,0,0,0,1.72-1.734c.195-.5.355-.976.51-1.432.79-2.321,1.224-3.6,4.227-3.6,3.564,0,5.214,2.755,5.964,5.045.333,1.215.321,1.9-.6,2.73-1.8,1.565-4.478,2.377-7.072,3.161C99.078,301.915,94,303.451,94,310.05c0,5.521,4.78,8.037,9.221,8.037,4.1,0,7.337-2.679,9.165-7.557v2.51c0,3.209,1.982,5.048,5.442,5.048,2.747,0,3.736-.911,4.439-2.377a1.091,1.091,0,0,0,.085-.837m-18.566,1.523c-4,0-4.427-4.831-4.427-6.909,0-5.411,3.24-6.531,6.993-7.828a16.857,16.857,0,0,0,5.64-2.775,1,1,0,0,1,.285-.164,1.792,1.792,0,0,1,.11.784v.451c0,9.988-3.375,16.44-8.6,16.44" transform="translate(-67.492 -212.932)"/><path d="M28.031,258.111c-1.117-6.418-3.536-6.418-5.674-6.418H10.81c-1,.073-1,.319-1,.536V266.5c0,.217,0,.462,1,.536h6.359c2.425,0,2.679-1.024,2.679-3.356a.422.422,0,0,1,.423-.423h.4a.422.422,0,0,1,.423.423v8.4a.422.422,0,0,1-.423.423h-.4a.422.422,0,0,1-.423-.423c0-2.332-.254-3.356-2.679-3.356H10.81c-1,.073-1,.319-1,.536V288.1a1.041,1.041,0,0,0,.223.761c.279.271.911.251,1.523.234.161,0,.321-.008.482-.008a.422.422,0,0,1,.423.423v.395a.422.422,0,0,1-.423.423H2.223A.422.422,0,0,1,1.8,289.9v-.395a.422.422,0,0,1,.423-.423c.158,0,.321.006.482.008.612.017,1.244.037,1.523-.234a1.054,1.054,0,0,0,.223-.761V252.229a1.054,1.054,0,0,0-.223-.761c-.279-.271-.911-.251-1.523-.234-.161,0-.324.008-.482.008a.422.422,0,0,1-.423-.423v-.395A.422.422,0,0,1,2.223,250H28a.423.423,0,0,1,.417.352l1.3,7.614a.436.436,0,0,1-.093.344.425.425,0,0,1-.325.149h-.846a.423.423,0,0,1-.417-.35" transform="translate(-1.293 -185.792)"/><path d="M224.447,313.629c-2.061,2.958-5.344,4.458-9.76,4.458-7.961,0-12.887-7.859-12.887-15.143s4.926-15.143,12.887-15.143c4.7,0,7.538,1.156,9.21,3.748,1.1,1.692.936,3.485-.406,4.362a2.73,2.73,0,0,1-2.346.347,2.779,2.779,0,0,1-1.723-1.74c-1.142-2.938-2.154-5.025-4.735-5.025-4.54,0-7.473,4.616-7.473,11.759,0,9.029,5.42,13.9,10.518,13.9,2.577,0,3.948-.615,5.228-2.346a1.024,1.024,0,0,1,.9-.567.809.809,0,0,1,.7.477.875.875,0,0,1-.116.911" transform="translate(-144.894 -212.932)"/><path d="M361.287,287.8c-7.96,0-12.887,7.859-12.887,15.143s4.926,15.143,12.887,15.143,12.887-7.859,12.887-15.143S369.247,287.8,361.287,287.8m-7.475,16.212c-.9-6.41.992-13.744,5.614-14.41a4.833,4.833,0,0,1,.634-.042c4.379,0,7.831,6.088,8.7,12.315.9,6.41-.992,13.741-5.617,14.41-4.675.623-8.42-5.75-9.334-12.272" transform="translate(-250.154 -212.932)"/><path d="M562.707,290.59l-.169.395a.426.426,0,0,1-.389.257c-.166,0-.333-.006-.5-.008-1.018-.031-1.624-.014-2.053.677l-10.871,28.332c-4.455,11.646-10.634,12.9-13.084,12.9-3.251,0-4.732-1.385-4.732-2.67a2.308,2.308,0,0,1,1.3-1.92,7.011,7.011,0,0,1,3.488-.767c.164,0,.338,0,.522.006,2.919.037,7.783.1,10.812-7.7L536.22,292.02c-.482-.792-1.1-.815-2.143-.787q-.233.008-.465.008a.42.42,0,0,1-.406-.307l-.113-.395A.422.422,0,0,1,533.5,290h9.757a.42.42,0,0,1,.406.307l.113.395a.422.422,0,0,1-.406.539q-.224,0-.457-.008c-.471-.011-1.187-.028-1.337.158a.511.511,0,0,0,0,.372l8.169,21.279,8.113-21.172a.617.617,0,0,0,.008-.468c-.152-.195-.849-.178-1.356-.166-.152,0-.3.006-.448.006a.423.423,0,0,1-.389-.589l.169-.395a.425.425,0,0,1,.389-.257h6.091a.423.423,0,0,1,.389.589" transform="translate(-381.198 -214.512)"/><path d="M474.343,290.085c0,2.51-2.865,2.51-3.807,2.51-.229,0-.468,0-.714-.006-2.258-.023-5.07-.051-6.931,1.777-1.365,1.345-2.067,3.584-2.084,6.663v14.21a1.041,1.041,0,0,0,.223.761c.279.271.911.251,1.522.234.161,0,.322-.008.482-.008a.422.422,0,0,1,.423.423v.395a.422.422,0,0,1-.423.423h-9.814a.423.423,0,0,1-.423-.423v-.395a.423.423,0,0,1,.423-.423c.158,0,.322.006.482.008.612.017,1.244.037,1.523-.234a1.054,1.054,0,0,0,.223-.761v-23.18c0-1.514-.646-1.664-2.228-1.664a.423.423,0,0,1-.423-.423v-.282a.423.423,0,0,1,.339-.415l7.163-1.466a.423.423,0,0,1,.508.415v5.583c0,.051,0,.1,0,.141A11.947,11.947,0,0,1,471.1,287.8c.8,0,3.243,0,3.243,2.284" transform="translate(-325.114 -212.932)"/><g transform="translate(193.426 72.503)"><path class="a" d="M43.987,23.066C29.027,26.659,26.4,29.571,23.15,46.131,19.9,29.571,17.273,26.659,2.313,23.066,17.273,19.473,19.9,16.56,23.15,0,26.4,16.56,29.027,19.473,43.987,23.066" transform="translate(-1.42)"/><path class="a" d="M96.2,9.512c-4.713,1.132-5.542,2.05-6.564,7.266-1.023-5.217-1.852-6.135-6.564-7.266,4.712-1.132,5.541-2.05,6.564-7.266,1.022,5.217,1.852,6.135,6.564,7.266" transform="translate(-50.995 -1.379)"/><path class="a" d="M7.969,84.719c-2.861.687-3.364,1.244-3.984,4.411C3.364,85.963,2.861,85.406,0,84.719c2.861-.687,3.364-1.243,3.985-4.41.621,3.167,1.124,3.724,3.984,4.41" transform="translate(0 -49.299)"/></g></svg>